<mxfile host="Electron" agent="Mozilla/5.0 (Windows NT 10.0; Win64; x64) AppleWebKit/537.36 (KHTML, like Gecko) draw.io/24.7.8 Chrome/128.0.6613.36 Electron/32.0.1 Safari/537.36" version="24.7.8">
  <diagram name="10_Pangram_or_Not" id="KqFWKzrbeft_3Bjgg-AK">
    <mxGraphModel dx="1219" dy="713" grid="1" gridSize="10" guides="1" tooltips="1" connect="1" arrows="1" fold="1" page="1" pageScale="1" pageWidth="850" pageHeight="1100" math="0" shadow="0">
      <root>
        <mxCell id="0" />
        <mxCell id="1" parent="0" />
        <mxCell id="BJSLNL1OzZFfqY90m0IV-2" value="Take input string" style="whiteSpace=wrap;strokeWidth=2;" vertex="1" parent="1">
          <mxGeometry x="331" y="608" width="136" height="33" as="geometry" />
        </mxCell>
        <mxCell id="BJSLNL1OzZFfqY90m0IV-3" value="Convert input string to lowercase" style="whiteSpace=wrap;strokeWidth=2;" vertex="1" parent="1">
          <mxGeometry x="271" y="692" width="255" height="33" as="geometry" />
        </mxCell>
        <mxCell id="BJSLNL1OzZFfqY90m0IV-4" value="Define alphabet &#39;a&#39; to &#39;z&#39;" style="whiteSpace=wrap;strokeWidth=2;" vertex="1" parent="1">
          <mxGeometry x="306" y="775" width="185" height="33" as="geometry" />
        </mxCell>
        <mxCell id="BJSLNL1OzZFfqY90m0IV-5" value="Loop through each character in alphabet" style="whiteSpace=wrap;strokeWidth=2;" vertex="1" parent="1">
          <mxGeometry x="245" y="859" width="308" height="33" as="geometry" />
        </mxCell>
        <mxCell id="BJSLNL1OzZFfqY90m0IV-6" value="Check if current letter is in lowercase string" style="whiteSpace=wrap;strokeWidth=2;" vertex="1" parent="1">
          <mxGeometry x="232" y="942" width="333" height="33" as="geometry" />
        </mxCell>
        <mxCell id="BJSLNL1OzZFfqY90m0IV-7" value="Return False → Not a pangram" style="whiteSpace=wrap;strokeWidth=2;" vertex="1" parent="1">
          <mxGeometry x="140" y="1044" width="235" height="33" as="geometry" />
        </mxCell>
        <mxCell id="BJSLNL1OzZFfqY90m0IV-8" value="Return True → It is a pangram" style="whiteSpace=wrap;strokeWidth=2;" vertex="1" parent="1">
          <mxGeometry x="425" y="1044" width="231" height="33" as="geometry" />
        </mxCell>
        <mxCell id="BJSLNL1OzZFfqY90m0IV-9" value="Print &#39;Not a pangram&#39;" style="whiteSpace=wrap;strokeWidth=2;" vertex="1" parent="1">
          <mxGeometry x="175" y="1127" width="164" height="33" as="geometry" />
        </mxCell>
        <mxCell id="BJSLNL1OzZFfqY90m0IV-10" value="Print &#39;It is a pangram&#39;" style="whiteSpace=wrap;strokeWidth=2;" vertex="1" parent="1">
          <mxGeometry x="457" y="1127" width="166" height="33" as="geometry" />
        </mxCell>
        <mxCell id="BJSLNL1OzZFfqY90m0IV-34" style="edgeStyle=orthogonalEdgeStyle;rounded=0;orthogonalLoop=1;jettySize=auto;html=1;" edge="1" parent="1" source="BJSLNL1OzZFfqY90m0IV-11" target="BJSLNL1OzZFfqY90m0IV-23">
          <mxGeometry relative="1" as="geometry" />
        </mxCell>
        <mxCell id="BJSLNL1OzZFfqY90m0IV-11" value="End" style="whiteSpace=wrap;strokeWidth=2;" vertex="1" parent="1">
          <mxGeometry x="378" y="1211" width="41" height="33" as="geometry" />
        </mxCell>
        <mxCell id="BJSLNL1OzZFfqY90m0IV-13" value="" style="curved=1;startArrow=none;endArrow=block;exitX=0.5;exitY=1.02;entryX=0.5;entryY=-0.01;rounded=0;" edge="1" parent="1" source="BJSLNL1OzZFfqY90m0IV-2" target="BJSLNL1OzZFfqY90m0IV-3">
          <mxGeometry relative="1" as="geometry">
            <Array as="points" />
          </mxGeometry>
        </mxCell>
        <mxCell id="BJSLNL1OzZFfqY90m0IV-14" value="" style="curved=1;startArrow=none;endArrow=block;exitX=0.5;exitY=1.01;entryX=0.5;entryY=0.01;rounded=0;" edge="1" parent="1" source="BJSLNL1OzZFfqY90m0IV-3" target="BJSLNL1OzZFfqY90m0IV-4">
          <mxGeometry relative="1" as="geometry">
            <Array as="points" />
          </mxGeometry>
        </mxCell>
        <mxCell id="BJSLNL1OzZFfqY90m0IV-15" value="" style="curved=1;startArrow=none;endArrow=block;exitX=0.5;exitY=1.02;entryX=0.5;entryY=-0.01;rounded=0;" edge="1" parent="1" source="BJSLNL1OzZFfqY90m0IV-4" target="BJSLNL1OzZFfqY90m0IV-5">
          <mxGeometry relative="1" as="geometry">
            <Array as="points" />
          </mxGeometry>
        </mxCell>
        <mxCell id="BJSLNL1OzZFfqY90m0IV-16" value="" style="curved=1;startArrow=none;endArrow=block;exitX=0.5;exitY=1;entryX=0.5;entryY=0;rounded=0;" edge="1" parent="1" source="BJSLNL1OzZFfqY90m0IV-5" target="BJSLNL1OzZFfqY90m0IV-6">
          <mxGeometry relative="1" as="geometry">
            <Array as="points" />
          </mxGeometry>
        </mxCell>
        <mxCell id="BJSLNL1OzZFfqY90m0IV-17" value="No" style="curved=1;startArrow=none;endArrow=block;exitX=0.36;exitY=1.01;entryX=0.5;entryY=-0.01;rounded=0;" edge="1" parent="1" source="BJSLNL1OzZFfqY90m0IV-6" target="BJSLNL1OzZFfqY90m0IV-7">
          <mxGeometry relative="1" as="geometry">
            <Array as="points">
              <mxPoint x="257" y="1010" />
            </Array>
          </mxGeometry>
        </mxCell>
        <mxCell id="BJSLNL1OzZFfqY90m0IV-18" value="Yes for all letters" style="curved=1;startArrow=none;endArrow=block;exitX=0.64;exitY=1.01;entryX=0.5;entryY=-0.01;rounded=0;" edge="1" parent="1" source="BJSLNL1OzZFfqY90m0IV-6" target="BJSLNL1OzZFfqY90m0IV-8">
          <mxGeometry relative="1" as="geometry">
            <Array as="points">
              <mxPoint x="540" y="1010" />
            </Array>
          </mxGeometry>
        </mxCell>
        <mxCell id="BJSLNL1OzZFfqY90m0IV-19" value="" style="curved=1;startArrow=none;endArrow=block;exitX=0.5;exitY=1.01;entryX=0.5;entryY=0.01;rounded=0;" edge="1" parent="1" source="BJSLNL1OzZFfqY90m0IV-7" target="BJSLNL1OzZFfqY90m0IV-9">
          <mxGeometry relative="1" as="geometry">
            <Array as="points" />
          </mxGeometry>
        </mxCell>
        <mxCell id="BJSLNL1OzZFfqY90m0IV-20" value="" style="curved=1;startArrow=none;endArrow=block;exitX=0.5;exitY=1.01;entryX=0.5;entryY=0.01;rounded=0;" edge="1" parent="1" source="BJSLNL1OzZFfqY90m0IV-8" target="BJSLNL1OzZFfqY90m0IV-10">
          <mxGeometry relative="1" as="geometry">
            <Array as="points" />
          </mxGeometry>
        </mxCell>
        <mxCell id="BJSLNL1OzZFfqY90m0IV-21" value="" style="curved=1;startArrow=none;endArrow=block;exitX=0.5;exitY=1.02;entryX=0;entryY=0.31;rounded=0;" edge="1" parent="1" source="BJSLNL1OzZFfqY90m0IV-9" target="BJSLNL1OzZFfqY90m0IV-11">
          <mxGeometry relative="1" as="geometry">
            <Array as="points">
              <mxPoint x="257" y="1186" />
            </Array>
          </mxGeometry>
        </mxCell>
        <mxCell id="BJSLNL1OzZFfqY90m0IV-22" value="" style="curved=1;startArrow=none;endArrow=block;exitX=0.5;exitY=1.02;entryX=1.01;entryY=0.31;rounded=0;" edge="1" parent="1" source="BJSLNL1OzZFfqY90m0IV-10" target="BJSLNL1OzZFfqY90m0IV-11">
          <mxGeometry relative="1" as="geometry">
            <Array as="points">
              <mxPoint x="540" y="1186" />
            </Array>
          </mxGeometry>
        </mxCell>
        <mxCell id="BJSLNL1OzZFfqY90m0IV-23" value="&lt;font style=&quot;font-size: 24px;&quot;&gt;End&lt;/font&gt;" style="ellipse;whiteSpace=wrap;html=1;fillColor=#e51400;fontColor=#ffffff;strokeColor=#B20000;" vertex="1" parent="1">
          <mxGeometry x="307" y="1394" width="184.25" height="83" as="geometry" />
        </mxCell>
        <mxCell id="BJSLNL1OzZFfqY90m0IV-24" style="edgeStyle=orthogonalEdgeStyle;rounded=0;orthogonalLoop=1;jettySize=auto;html=1;entryX=0.5;entryY=0;entryDx=0;entryDy=0;" edge="1" parent="1" source="BJSLNL1OzZFfqY90m0IV-25" target="BJSLNL1OzZFfqY90m0IV-2">
          <mxGeometry relative="1" as="geometry">
            <mxPoint x="398.12" y="651" as="targetPoint" />
          </mxGeometry>
        </mxCell>
        <mxCell id="BJSLNL1OzZFfqY90m0IV-25" value="&lt;font style=&quot;font-size: 24px;&quot;&gt;Start&lt;/font&gt;" style="ellipse;whiteSpace=wrap;html=1;fillColor=#008a00;fontColor=#ffffff;strokeColor=#005700;" vertex="1" parent="1">
          <mxGeometry x="307" y="404" width="184.25" height="83" as="geometry" />
        </mxCell>
        <mxCell id="BJSLNL1OzZFfqY90m0IV-35" value="&lt;div&gt;&lt;font style=&quot;font-size: 24px;&quot;&gt;10. A pangram is a sentence that contains all the letters of the English alphabet at least once,&amp;nbsp;&lt;/font&gt;&lt;/div&gt;&lt;div&gt;&lt;font style=&quot;font-size: 24px;&quot;&gt;&lt;span style=&quot;background-color: initial;&quot;&gt;for example:&amp;nbsp;&lt;/span&gt;&lt;/font&gt;&lt;span style=&quot;background-color: initial; font-size: 24px;&quot;&gt;The quick brown fox jumps over the lazy dog.&amp;nbsp;&lt;/span&gt;&lt;/div&gt;&lt;div&gt;&lt;font style=&quot;font-size: 24px;&quot;&gt;Your task here is to write a function to check a sentence to see if it is a pangram or not.&lt;/font&gt;&lt;/div&gt;&lt;div&gt;&lt;br&gt;&lt;/div&gt;" style="text;html=1;align=center;verticalAlign=middle;whiteSpace=wrap;rounded=0;" vertex="1" parent="1">
          <mxGeometry x="15" y="50" width="820" height="250" as="geometry" />
        </mxCell>
        <mxCell id="BJSLNL1OzZFfqY90m0IV-36" value="" style="shape=image;verticalLabelPosition=bottom;labelBackgroundColor=default;verticalAlign=top;aspect=fixed;imageAspect=0;image=data:image/png,iVBORw0KGgoAAAANSUhEUgAAAmYAAAExCAYAAADWT25YAAAAAXNSR0IArs4c6QAAAARnQU1BAACxjwv8YQUAAAAJcEhZcwAADsMAAA7DAcdvqGQAAFVtSURBVHhe7d3Pa9xYvjf+93zrP7iPcUjawYu60QRTi9BMMJorLpdeVaPv3JjQmGTzeAhoooRQgxJCNmkvnGyakBRThHR1C8LN3cQUQ3Ce+YpoFS5DPSOMhyaLwniUK+jQbgcb3/kPivkuzlGVpFKV66cj2+8XFCTSKfnoR5U+dc7nHP3ixx9//Ad6OHv2bHIREREREU3A/5NcQERERESfBgMzIiIiooxgYEZERESUEQzMiIiIiDKCgRkRERFRRjAwIyIiIsoIBmZEREREGcHAjAbkwtRMuMnFmZH1+hEREXU39sBsy7yCldwVrJgbyVVD2MFW5SmqOblN+XrFu+4nEqCi6bA9AEFyXUYEADwbeo7BGRERHT1jD8zGacu8jZpVx15yBX0SrqnA8lSU/SqK+eTawe1X7qGae4qt5IpR5Iuo+mWosKGbDM2IiOhoyW5gFrzGf9nin9PlO7jZXMWyfF0uJgvTxLkmdBtQyy9QGkNQBgD7mx8mE3TnS3hRVgFbB2MzIiI6SrIbmL3/Sd60Z1HQL2IquZ4OUYDKQxtQy3gxrqhswvKl+zAA2A8rme11JSIiShoxMNvBlnkvlgNWk61cnTrzxarma2wd0l3TNZ8gl3sCrfJ3BK4DLSf+n8v9J8zK35PFEbjrMLX/lGXkezUHlUR9B90ugv9GxYxvN/pqtfC4jlimrSPA3+FG3qOZ6x3BRl/1lds03b+josly2jqC4L9hyv9r5n9H3hC+7xEsD1AXdfQOy/o4x+7TxLVSRy2RQ1it7ETesIFXrWU7qJv3Ytvej5SMK+JuWQU8C48OaDVzTQ25nMbWNSIi+uR+8eOPP/4juTDq7NmzyUXSBl7lHqORXBwy7mC5elH+Zwd17TbeeokyAAANi81bOA/RfVlVXvbu3lKv4mb90sAtaK75BHrXoBFQy79FvfRP4j/BOjTl/yK1uphC2f/fre68g7ZrOLdRbXW9/jfM3P9Bj+Lt8q6DnP43AL+EYfwNdvJNxr+jWf1n8e9+69vaZm/xOgOumYNuqyj79Z7dmFtml8A8ei24T7Gi15MlYqbLT2CWzsj/ietsz7iKaftl5/UWu84Sggo0xYJnOGhGdyjGhZnTxTlRy/DrpQOCTyIioskZusVsywyDslkUnCet/K9FI1kS2K/8QQZls/giLOvfQQEQLSZjGcE5APVf4Pi30Wz+FmVVLPIsLzaKr2D8Cxz/t2g2b4uX/y8QRfdRc1JawhDd7r8jPAz2WrsFKqj8RQZlv5TlbsN3finXTqHsxwMiQQRlhiPq4pdlSGr/baT6Gs5v29uSf9uRlW740fIB/AYAdRF6z4hlA5s2AONqLB/wpnMVhblIseKtxLWiYTFSfrm5GgnK2vbsl2ikXT/2evfBA3kdiyqAht/RwthWxIKhAlBh3D+oRZCIiGiyhgzM5E0YwHT597hc7LyRtu1gq/YBkGW1sGz+Iv61PCv+3dgRXVL5SzDDG7SjyffP4gs/cuMeorUsRv0lnPq8HFX4TyjdDwOj/4Ef3r3z86hW51HMyxY0AMifEzd5AN5mZ6ADRLf7z1hICVDfb4qON7WstkY15ou/lEHcPjbfR0u3qeXfoloUdckr/0suHaG+6r/grtweAMD4dY+WsPfY9AAUlP6CFvsv2HLbXZFTxUu4XOrSojUQDYvNb2LXz1zKMY7LQykA8DbR5dACAIrVOprNOqrjGGpKREQ0guECs2Cn1d04rfQKygDgZ+zJPrY963Ysl+iZJQI2eD/1yBUatymci/733FSrZSkaGIm8q/+M5Iz9B6z0vkJBTWw3xbk5EVJ6NQ+uDKoC92+yFW0Kc6kbmMKiHgmiirpsFWt3p2LQ+hb+VyzIUuci2x/aRVx2NEzjA97qt7GSu4dXlTHmEBrzors74nx1FcthNzgREdExMFxgdty5DhTl/8D29rvkbQ0nX/q1aB3z/gZdEQGUEuZ8qb88oKuwhwnVd2DFWzCbT0T3pfoBDeslasoVVA+7q5qIiOiIGnNgtoP9juzszzAtu9Smy+1ctPjr07V6BM7fZDATtlj9HZWHYbAU5ozF89GGFraOqWErHQBMQTX+HX59vr+uwg4TrC8A4BzmDszTijojui/rq1huPsEXKrBn/xH1rm/+Cftd140qzI+bO7A1k4iIKAuGC8zyF1GQN/3Gw3DKgm4jL8/g/KLIJduz/oBXkfyjTy1w17FkyU7UtBarAnAuDwB/h1v5/7p3DfalHUCpi/8v6mGSfvN/o1795yGDsoSx1jcU5mnV4PQKoILXeGW+xlYQPb/huf+AvZQkr6k5sa7hbEymKztwUOsjP47TZRARUVYMF5hFgi14L/EsdwUrORGUTatyecRU6SsZyH1AQ4/nmXXOWzVh3v+FIvOwFD2cYmIK5Rdhi9U/iUAEAOyw7H9ADwO4obW361n/EZtvTMwn5rTyzgYzqfq2FRcMAB5qPSMzMXKypqTlEWqY6xhtCkwpYiqWPeuxvIbGez0ETg0eAGMh5Y+3uFizPQAeJ6MlIqJPbsjADJgqfYObZQ3TrSVi2gzzftq8Zxdxuf4Ei8ZspHwWyG7ERCJ9sfpbOEZ07OcUjPK/R6aXGE7xbjiFRQrvb9AVZ6gHb0+qvi3FuxBztT7qXr/8JXzlaK1ua2EW08Yd3OzWVV28hZsd7xmXAE7NA9Qy7vaKyzhdBhERZcgIE8weLa2JYNV/GSGfaxTtyWUNpz39BSCS9zVd5LolJ3fNDNdETrehln3Uu8+tkRlBRYNieTCcZjaPJxERUYqhW8xoQMH/tGet96Mr/g7X/5/EAIQMKlbhGIBnLXU8lipzggqWLA8wHAZlRER0pDAwOyz5/yWfdADYsRyzdj6Y2nOi10+vWHVgwIOlmEPmwx2CwIWpWPDUMnxGZUREdMQwMDs0/4yq/+8oG9GpMgRV/SXKzm9RD599mVlFVJsODBX4BH3B/ckDUA04fOYlEREdQScmx4yIiIgo69hiRkRERJQRDMyIiIiIMoKBGREREVFGMDAjookK3mjIXc9Be951euKEAJUHOeSua6jsJtcRER1vDMxSuTBzOeSirzE8SDGoaMjlcmN/JuOktnuUuc9zyF3PIdd3MNBdGFiY75JrJuSdOda/F7wzoT2Qx0O+htn2cMchgPNXMUuft77W/ckRUbsOatsQjwH7ITEvy24F2vUctDf9zNfiwozs87iuB6JxGOd3FB0vDMzoQEFFg5Yz+7upZsS508lJSU6m4I0G5Vsb3nZyzWHJQ/+VOBfq/AL6mlnulI7FGQBQsfg5Jz3JuuCNBu360fp+yAJ+R1E3DMxSFVFtNtFsNtFsOjCSq0+Y95uefDLB0aOezuqjFA5D2FqlonzDR/O7ZutVvZAsOzn5L+toftdE/VpfYRmAPEpfN9H8ro7SqeS6QRRRbe0zP8eT8v7j0f1+yIKT/R1FaRiYER1b77G5DWD+PkoX2PJERHQUnKzALHBRMTVokdwxTRvt8UIiv0tDJQCCitnetmb2fKZkX2UHqq+KuXN9bhcB3Gi5nAbNdBEr6pqtv6nbAGBDj+bc5XLQ0jeeCfnT4QOweth1UXmuQYvkIGkPTLipCecq5k4DwRuzXf6B2T05XW67nd+kwUzNiwrgvknkgH1rJwtJsmxkm9rzxHkbSgA3VtfoKz0B/+DjMEB+l8ypS3v1m88WzdcZ+HjIvDXzHdrH4UEFAYLWOYwOXBC5dhoqu4nzkXoc0Dq+B11n7e32c3yRcj3kkHugQXuQPG7iXIi8vPY+if2qpByvzu1qzyvx+kbOmb4O8f0QrUciD7BrfqLcTqusPBfi+HcS51kcI/HvXl2o8hp87or9lp+xjjok/2by/wnROgC9r99unx/0+x1FJ9IJCswCVJZ0WHa82d3zbOhKrw93f2pLOSiW3d62Z8NSRMAWp6LxUEspm6zD4PWtLaVtt7MOrqlAj5aDB8/WoWjpX0RH0oWq6D77sltLUYDK9zqs9cTx3bahL3c5vt9rUNYix23bhrWc8sW7W4G2LLbd5sFeW0qUDeA+V6Cv9ZcD1irbWuLBW9ehRG8g4U3leg656zpsAFjX4zeL2A0nQOWBAj1W115UNP6UdhzSj9lhCN5oIjiYd9C8Vhz6UVyNP2nt47Bdw6PnS61z6K0/TJw7D7XvE+cj9Ti0j2/ndZZy7QCofZ9LOb7JsnK7sesBwLbX/Vr66MC8rsSuS2/dgpIImDuvM1FOdw7hDIf5hds1OB3HxsXaOoCZReinwhytBvyOctKuj0arqzCP0teiO9v+NnqOAlS+t+BBRfl38jFu/dRh/v6I3ez9fEfRSXWCAjMABQNlx5e5Y000mz4cAwBsrI30nePB8wDVcOCH2y2r4svbSYY6HjzPi5ftVoeB6puy3bQ6uKZoAWuVC7erAp6FR+F2i9XW3xV/04DTKi9e9SGfuO6aiRGvyddhBYifGYncKx/OPMTxTf6qhgdv24M678APyy7I4xsbORh+0SNSNiyf+IX87pEIKGbKcFba+V/+jZRsqHdmK/iIbXNeBbYtPOqob5/ePYK1LerQ2u5KmI9lwOnI80o5DqnHbID8LnmDir78hf4So4M3GpQ1UZ9m3zls6bxtD+qCj+YNQwTS6x6MG2FdPGx+TJaPnuP04xC8WWod3/Y5lucNHqyOYEcEVgdeZ5HzFrt2FrofaW/dgh3NNwzPc2y0bBh4RK6H75rwb5RhnI5sLHLOxH4bcBLncLiAI4/Sb8Tx7xiR+24NNgDjNyKAEi1OkfPyzoy3UH3chAegcDqsRxHVG4Zo3ZPBaHh+jBvR67yPOnweudZSrl9xDSW3S9SfExSY5VGqVlEqRr8s8ij2+CIbhFr2Ua+Gv9bzKJbuwwDg1ZzOIMNw4mVlHRp+tOTg9e2nDu6aLb5EW+Vk2aooa3dGfMdUHqVr1UTuVR7Fz3sc3wUf9VaLTB7FL+Xx/WvkHIdTPcw7kbJh+WrkSzpA5U/yXHxdQjHy5Z12O3N/kGWT27wmz9sP8rydKqHeukHIG++8E79pfN1+wHvwsQFEbnZiG0XcXejRGhHbt/Yxa3zsuNInKhqU9T+woIeZMl5Eg4mZMu5e6NHldOBxCAdfJM9xHsVrL1CeSQZFQj/XWet6SF470eCpgwy0w2v+VBEL88ky0noNzrv2+cxfKKH65RiOcT8uLHTsLyL7vBAOXDk9BzVyvMW1nAymRApCy4WqCCTXdZhvKlha84B5p3MwTK86yOuiq90KtG9tqAt+53aJ+nCCAjMAgQtTE3N+tV4igWpkBSV5Oz2HuS4/+o2FPr/gBqzvwXUI4DeQmi+Wy8lur4bfGUiOWbEab3nreNUjQcIk7bowHyRyq7rmd0V/eYfOYW4msUj+So/9ou5lZg4Hj8kK4P+M1DyeVnflz8OdtzDosH+Idoe6eLTmAShASfm13/e+TdJfl6DIm+pYgjIA6q/02HWX/H/SwcchHHyRNk1IHspnSA1+D77O5PXQ17UTkVKP4rUmmt9VI8tFq5IKD9a3isyNTOSXTZwMGGNdiWFLXmQfTiloh8wiCDbmjVYwJQK1zmu4eM1HeQaw1yx48sdOJ/njJFqH3Qoerh90XcgW83lnyBZDopMUmAUVaIoO2+s3l+YTO2r1PWpkHpi9Pd7jG7ZAHUzetD+1C3dly40FJQz2lmWwl3Ijz4xf3Zf1ftiZzH3sTfjauVBF/TtfdF/OeLDXLOjLgzy5YXRFvQw12vr1bk10w+rRK1IErN7H9/KYGFjQ56DKYOr9R69L8Nrf8ct/vhirQ/BDDR4M3O8RcLnPFVgow08N9oj6c2ICM/eRzPspR3OrmmiKBKrxCxzUPAAFpcevq+7GUt+OOuShFACo5fg2+2qtaiDW0zqCLOSYuY48vgvRnK12bkhfwm7Lz9rnOGyBOrhbT7aCbG/ifWKN6LKJkq0r0Tyw5CvSPTkQmaukzkSbVlUYC/7IOVuTdU4kc894sL9NJsZnTEp3ZbsVtLNFp0PHdTbItTOsvOi+/LqJ5neihalzAERUZ8tfP9wfuvyQkQn4YeuX6EIUSf9t8nPxs4/g3RrsmTmcO6VjcSYS0EU+myH3uS5z7cpQYUPvMvoyXgfZLd3jx4oYhCK6l5N/k2gQJyYwCxWUc60PTeBWYD4c1xdZ5KMduDCXxI2/727LLgarb7wOlZQ6nJsTSf5Lposg9duo07m5cBDBEFMRZFzhdOT4vqvA/FOfx3fXbSX5xxOBZW7KmgLtTfR4iSkI2je2sCvLxsPWVAEuKg/C6Qfizp0WSf5Lz10EQ9wAuwnzdu7/7gX8VhJ5HdUerQLZUUT1awcGvJRRi1kQ5nCJZPPYtfBcDgpIvdHHrzOz4zob7NoZyG4F5vMK3N3oJz18ekPnAAi0ZrD3UPuh+/dDZ5e5mEKk+2hg+Te3a3B2RTdmWhei+FxswvnBluvF+7y/PsLaz4nCreAJUBdeoHShhBcL8nOVOpWNHASwbeHRGwe17WSLXcQ7E8oaUF6JdgsTDefEBGYiuABsXWm1zCi6BTvteyEyh1cr98rWW8vS5u+Kbjen6GK7hoPqkJ/SgeorJetgpdQhX3qBsgoxPYbS2VqV9rzNvCK+VD1LhxIpm3Yc+pGFHLPwcSj2t0orX0v51oLdo4sjWja3rMsbazJxOBz5BXhrert78LoCfS3eOiC6a0QQF92mOm8gmZ6Y/1Iki3vrOpTlZJ5ZytxMfRLHwYa+rHRsN22urb7F5nbqnLajv2dd9qOI6oro9uqYquLQ6tBd8Vo48jFxLax7wEx6flPyOrNTrrNBrp1BNdYt6MuROlzPiXy+aOJ9RBh0xa/3xPGVP1jaXebhMehe2/yX92HAw6azBrtnF6INa739+K786QKwbcPeTsyqvyuT/SODPFqfqzUl/TMk622vWfA6WuwkmewPeLBSPpuHcZ3R8XJiArN8qQ6/HP3SUsXUEo74ghsrVYVRduAPG5UNWN+8fh9lQ4UaXaGqMMo+mh11yKNUF9NjJLfTVbEK3zHi2z/i8l/W4S8kju+8A/9GyvH9/D7K8yrUaAL2TI/uvgtVmZ8TOyEwFl7Eh86fKqF+o9ze7owK44aPuj4XKRTKo/S1mGYhWb9RiJufENs/9J7TLVNOlVAPp0F4kLX6FlFdcVCej18L6rwD/+s+WldmVBgLTmfOktzn6PVr3PBR/xzxec0GdaqEFzeMxLUg6xsbJBBxoQq/4z1JIoA2WmXkfn3dvv46iRZHe93u0rIYHTEb6RIOg8DYQAoX5nJivjJAfK5+Jz7z8fnNQu2Rq2ktdkB7wA/RuPzixx9//EdyYdTZs2eTiygiqGhQLA+G0xy6dYzo0xCTlFrbBpyVamzaBSBA5bkCax0wbhzuszUhu5xE19DJmQcqnP5jpOP9zkTuW3u0bVCM+zwncse6BaZEY3ZiWsyIKKk9Oi052Uaw+x6b60DHPFBjF6Dy3IznNB0wXQfR4Qjz4AB14S6DMjo0DMyITqxwfiwbVjKnSE6ZoSa7XyfhZ5HjFsurAm+G9Im0chPDPLjExMNEE8bAjOjEiuStJfKD1BnxuKrJT5KZR+l3TjwfL8y1m/jfJuolzAWc/GAkoijmmBERERFlBFvMiIiIiDKCgRkRERFRRjAwIyIiIsoIBmZHQFDRxEz7adPyExER0bFxQgOzHWxVnqKau4KVyOtVJuOeAE5NzCvt2WkPQx7eVuUeVnJXUDVfYz+5MjNcmInHRuXGEKCGwe4YNhUzqe0SEdHJcCIDsy3zNmpWHXvJFZmUh74ophJQjfTHkgxnA5vWBwDAnv0XbPFxbkdCUNGg5dIeHUNERMfByQvMgtf4L1v8c7p8Bzebq1iWr8vji3rGKl+qo9lsoj7WZz5dxFx5FgAwbfwa5zM7UU8R1dYDzuUDoU+w95sen8tHRHSMnbzA7P1PsqVsFgX9IqaS60+Q86VvsNxchVm9dKKPAxERUVacvMCsX8EG6ua9WB5aVXva2eXnPhXrtdfYxw62TJG3NXru1mRyq1r1jb2eYitZDsCWKfejsoN9N5qTdw+vKjvJ4oMJXFRMDVpk/zTNhJs8vgMQ+V0aKgEQVMz2tjUTlR7b7avsQPVVMXeuz+0igBstl9OgmW78yZWu2fqbug0ANvTodZHLQUvfOFxTHJNxXDpERDR5JyMwC163gwq9Lhd+wFslEpxokSAqeI2q8hhv7Q+xPLQ9r46aci99kID3E/5s3kbNFnlbALBnv8QzcyNW7Cjas27jmR7NyfuAhnU7/Tj0JUBlSYdlx7vlPM+GroyeP1VbykGx7Pa2PRuWIgK2OBWNh1pK2WQdBq9vbSltu511cE0FerQcPHi2DkWrJB4rPgwXa7YHwIP9cBzbIyKiSTsZgdlAdlBfeimDEA2LvsxB8++gAIig5GFaS1gdDRsoOE+w3FzFTZm/BXs9tTXqYBPKrSreauXUterYD/WqPBbhcQAaayMEnQUDZceX+9dEs+nDMQDAxlpapNM3D54HqIYDP9xuWQXgoeYkQxMPnufFy3arw0D1TdluWh1cU7SAtcqF21UBz8KjcLvFauvvir9pwGmVF696KS1JsIgFQwWgwriv83l/RERHwMkIzPKXYIZJ/o4mF87iizDoaq5iuS7zrIINNGTzxXT5cjspPn8Rl8P3eumjGKfLT3C5eAYAMKWEzxj9CfspZY8WDYv1S/JYXMTcyFFiHqVqFaViNFTIo7gw8oYBAGrZR71alIFIHsXSfRgAvJrT2WpkOPGysg4NP1py8Pr2Uwd3zRZBVqucLFsVZe3OiG9gxWodzWYd1VjdiYgoq05GYDaI2OAAEWS1nDuLaQDAB+y9j6/qKN9qmfoG2lG/J6pnxz84IHBhamLOr9ZLJFCNrKAkD/g5zIkZRzoYC32OdB2wvgfXIYDfQGq+WC6nwwaAht8ZSBIR0bHGwIwOX1CBpuiwvSMy8cNRqy8RER1ZDMySerSK7Tt/abWmTZ+Lr6P+uY8seADUcjS3qommSKAav8BBzQNQUIbKsxpLfTvqkIdSAKCW49uMvuqlLvVtINbTSkRExwYDs6T8RRRkl1NDj0yPEWzgz3KmfKhZnpD16Cgo51qBR+BWYD7s3jU4mEjUErgwl0Rg1Xe3ZReD1Tdeh0pKHc7NiST/JdNF0GegdW4uHESQmFKjC06XQUR0tDAw63AG2n1NtprVUQun1FAeowGIQQMvDmFC1sjcVa2cI1s/cN6qg+zL52Ou5K7gWRhooo5a2rQhEyKCC8DWldb+KLoFO62ncIjjEN1uTtHFdg0Hwz44YaD6Ssk6WCl1yJdeoKxCTI+hJPPM0p+3mVfEmFjP0qFEyqYdB06XQUR09DAwS1O8BdO/g4IanU5iFtPGVSz6xyCZ/xPLl+rwywbaufCqmFrCKUeWjYmqwig78IeNygasb16/j7KhQo2uUFUYZR/NjjrkUaqL6TGS2+mqWIXvGPHtd8XpMoiIjppf/Pjjj/9ILow6ezac9oEo24KKBsXyYDjNoVvHiIiIPiW2mBERERFlBAMzIiIiooxgYEZERESUEcwxIyIiIsoItpgRERERZQQDMyIiIqKMYGBGRERElBEMzKgvQUUTM8ynTUdPdOK5MDUT6Z+OXuuIiOIYmB0BW/IxSlWzn8cl7WCr8hTV8BFL8vVqpLtCAKcmnj/k2Wsn+gYz2Lk4yVyYiUdM5Y5tUB+goslHf6U99yoA4NnQcwzOiOhgDMwybwOb8pmWe/Zf2g9V72LLvI2aVcdecsVI8tAXxTOAVGMBWZ9Uf999jVfaPayYG8lVIxrsXHxq+5V7qOaeYiu5gsbKNRVYnoqyX0Ux7blX+SKqfhkqbOjHNjglonFhYJZ5FzFXFs/snDZ+jfNpX/yh4DX+yxb/nC7fwc3mKpbl6/KI0VS+VEez2UQ988862sHWw5doeOED2sdpgHORAfubH8YcoA+iiGqziWaziWbTgZFcfVy4JnQbUMsvUOp1PeRLeFFWAVtPfTg9EVGIgdkRcL70DZabqzCrlzCVXBn1/id5I55FQb/YuywNpe9zQSdAgMpDG1DLeNEzKhPypfswANgPK6k9nkREYGCWYe7TWI6YeB12t9Rk8oS2TLE/1coO9t1oPtw9vKrsJIsDwQbq5r1Y3lxVexrrStyXuV8rudt4K9LhAPtx7PhV07bdjwHOxcD7NpDO/MGq+TrepRqpa80GgDpqibrHj8MGXrWW7aBuhsfxsPPoArimBi1yrWmaCTeyb66ZQ65nnpa8XmPXaAC3Yka2q0Ez3ZTASLxXqwQi4DLFYBcx4KVLIOU+guUB6qKOg8MyACjiblkFPAuPuu8EAMA1NeRyGlvXiE4gBmZHXfC6faPW63LhB7xVIjdj7TBvsP3bs27jmR7Nh/uAhnU7PlAheI2q8hhv7Xi33J5XR025N+Kghsnpa98GlJY/uGe/RO3RGHLpNjfwKncbb+12F/Ce/RLPxp6nlyZARVOg2x7CmBoAPM+GrmioyKjo3JwKoAE/NUoCEPhoAFDnzrUWuaYC3bIj2/Xg2ToUrUuwtenAzCmw7Mg7bAtKSoTkrtkAVCzq/YVlAJDXF6ECsNc6t9fmYs32AHhsXSM6gRiYZVXxVis/7KbMazp8h5AnpF7For+K5eYdFOSixloYDOygvvRSBiKaLLeKZT8s+wGNhyLonJJdjMvNJ/hCjFMAjDutY7jcXIVZOiNXDGjYc9Fz3wa1gU0bgHE1ljt407mKwlykWKSuiwbEcYuU73Yc9uyXaGAWXzhP4sfYXk9tGRynoLIEywOgluH44fXmwzFUAB4s2byUVwoAPGy+l290TeRy7cAN7zfhASgoMlCS+V8wHPit61hut0urlWdbsKGi7PiivC+v+47RyAH8BgB1EQPEZUBex6IKoOH3CLiKWDBUACqM+/22xhHRccHA7KjLX4IZ3nQdTS6cxRdhENNcxXI9q/lQGhbrl2QS/UXMJSO/YAMN2XAxXb7cTrbPX8TlcF+9rI6OPGDfhmX/BVtuuytyqngJl0sXY0WGo2Gx+Q20ogza8mOsc0/hVCwGnHopMqoxj2L1BcqieUkERefmIGIaccIDvwHAQ82JXgAqwgYz0aJlwKkWI8FNHsWqzPVKbbUy4DTrKIUVyRexkHoc3mNTRIEDBk55iPhyE2F8maZYraPZrKOaOsyTiI4zBmb06ahneweMscEMiVaec2cxDQD4gL1ed7hP5aB9G5gIRqfxAW/12zJnLZFfNgpjHucTi85XV7HcvNWxfLxkgJM6DYsMYsLuy7zSankMAzrDMODVHAStQK0A0WAmW7RgQ0/mSeZ02OjSapVSj2K1iWaz2rGciGgSGJgRHRXFWzCbT0T3pfoBDeslasoVVA8lDywLzmFOBbzN9zKgM7Bwdw6qV4MTAO83PUCdQzvDjIjo6GFgRtnVo1Vs3/lLqzVt+kTdic+I7st6O59uz/4j6h1NP6GfsN91XYZ05HAh0uoVtoLJFrSGj8Bdg63O4Vxex6Ia6c5sdS3Ksmo5kl+WeNVLA3ZDRokgMbXVracwN40BJBGlY2BG2ZW/iIJM5G/okekxgg38Wc7ADzU50esZTIX9Xfb6+Lr6PrXgNV6Zr7EVRKe6OIPzi7OpgSsATM2JdQ1nY8yjctvTSYz+7NQwh0vMit8+XQFcUw4KiHQvnhNNZnDWbDlNhXgqhVd7hLVG682RshaWTBfB2K+DMFdMtNb1LXBQ6yM3jdNlEJ1cDMwyqj0v1xU8C4OQ6JxUhzEFhmt25uXYent+p9ZwuEk5A+2+JlvN6qiFU4AojyHuwbP44kXnwIbzC+EgiMh7Oubv6l8mzkU4NYZyuz0NSqs+GuZSEqCmlLMAgD3rMZ5F3jPscWgJHNTkdBJdn506wLVTrIYjH3UorfeI6TOgiuT9OBuW3Z6mIq8UAM+G7cWnysiXxOABz9ahKMk8s9zIQU9xwUgZfNBb4NQgYs3kPkVxugyik4yBGWVb8RZM/w4KanSaillMG1ex6H8DLa3ZoXgLN8sapsNpM46D/CV85ST3aRbTxh3c7JagX7yFmx3vGYO8jkVjnM9OLaLqOyjLbQoqVMOBX48n3YspMxDp3gRQXGhN5dKaKgMAkEepLqbHGPchAAAU74rAz3qUHpx2kCNQ1TLu9jxonC6D6CT7xY8//viP5MKos2fFr24iIkpwTeR0G2rZR/2AxzIFFQ2K5cFwmuhoBCQikthiRkQ0rGIVjgF41lJ7ots0QQVLlgcYDoMyIuqJgRkR0QhEjpwHS4k/27MlcGEqFjy1DJ9RGREdgIEZEdFIiqg2HRgqkJoQlocYxDDS9BxEdFIwx4yIiIgoI9hiRkRERJQRDMyIiIiIMoKBGREREVFGMDAjIiIiyggm/xMdN8FrVJWX8iHvIQ2L3Z4QQEREmcHAjI6Effc1/vzwL2gUvsJy9WJy9dGUGkC1FZxVXB5m2qvU7TIwIyI6CtiVSUfADrYevkTDCx8gTj3lL8FsrmK5uYqb5egzRomIKOsYmBFlQMERgVT0NVRrGRERHWnsyqTxcJ9iRa8D6lXcrF/EvvkH1GzRwjVtXMVX1UuYir1hB1uVV/gvq97qcps2ruLf7l7CeTk9+n7lHp5ZvVvJpstPYJbOAAC2zCuo2ZB1aP+91nLjTrsbdID6hu+fLj/BV8or/FEP6zyLQvn3uCz//sAiXY79dFu2unMjLYfTqobCi1vQukwp3z6Gvboyd7Bl/gH/ZX9od3+qGhZfXMb5fHLfDj5vREQ0PLaY0Xh5P+HP5u1WkAMAe/ZLPDM3IoV2UNduoxa5uYflaspTbEWWTVxf9ZXLrdt41grKAOADGtZtvHJjxSYjeI0/6p3duXteHW+Ve6inPaOxLxt4lRP7H8tJ8+qoKa8S5yJD542I6JhiYEZjVkfDBgrOk3iOk73eunHvV/6Atx4AzOILWW7Zv4OCfH9NBkVTpW9kt94TfKHKNxt3Yt19YWvZ8A6ub4x6FYv+KpabYX2BxlpnEDcJ08ZVLPryeDVXsexfxTQgAkRnJ1m8P+46GoBo/Yt0p97076CgxlvL+z1vREQ0PAZmNHbT5Se4XBQB05QS3tx/wn4A0RVWk12G5d9Dk+WQv4h/DYOixg725bsOQ+/6RmlYrIdddhcxZyTXD6+hX8FKLvpKtILlL+Fy9VK8azF/EQUZsO5t/txePpQPaDx8jS35N6fyF3G5finS9Zm980ZEdBwxMKMxm0VBjwQPxVuyFeYbmQf1M/Y8sWrPuh0LRlr5ZN5Ph3iDP6i+EerZRJ7c4doPNvBKu4dq65jdli1YIyhebrdGei9RU8S2q2Y7SBOydt6IiI4nBmZEGdA5KjMRGLpP8Ux5jIaXyAUb2Rlo9Se46Vxttb6hlTd273Dy54iIqIWBGR2yzzAtA4DpciRfKvbqNnpwGBvYtJPLjpod1B/WxT9bOW6r8dy7kZzBVPESLtfFNm+WNbn8QyR/7rDPGxHRycTAjA7ZGZxfFDlJe9Yf8MrtJ2n9DKbCTHt7PdHF1jY1J3OdPJkfFmygrj2Wye3HRAGYykNOWxEm4w9vv/IUVXMjkk93BlP6WTmoIGqY80ZERINiYEaHbqr0lew2+4CGHs9XWsldQbXSedM/vxC24tRbeVDJslP6r2VAIcsoj/HWA6bVoz77fTQwfYlnMr+s1mWOt/3Kvc78L9RRC4+x9jqSC/YT9uzHeBY5piutxznN4ou77cdfDXPeiIhoMAzM6BO4iMv1J1g0ZlNaZroo3sLNstbqTkuVv4SvHC2yzVkUyk9g3j/6kySfr4rj1TaLQvnOyI9cmir9Hosdx3VWTs2RHAAxxHkjIqKBcOZ/IiIiooxgixkRERFRRjAwIyIiIsoIBmZEREREGcHAjIiIiCgjGJgRERERZQQDMyIiIqKMYGBGRERElBEMzIiIiIgygoEZERERUUZw5v8Tat99jT8//Asaha+wXG0/D/HIcp9iRa8nl3YoOKu4XEwuJSIiyga2mJ1IO9h6+BINL/0h2ERERPRpsMXsRNpBXbuNtx4A487xaDGLieyfehU365cwlSxCRESUQWwxyyr3KVZyV7CivcY+drBl3hP/z11B1XyN/WR57GCr8hRVWSYstxW0S+xXwm3IoAUA7Met8iu5K6hWdlrlt0y5XIv/vdZyc6O9cID6hu+vVnaw70brfA+vIn9/ooaob1/HAejrXBAREaVhYJZ13k/4s3kbNbvd7bhnv8SzWDAgWohqVh17kaV79kvUlKfYiiybuL7qK5dbt/FMj9b5AxrWbbxyY8Uma4D69idD54KIiI4cBmaZV0fDBgrOEyw3V3GzPCsW2+utm/x+5Q+yBWwWX8hyy/4dFOT7azLImCp9I9Y1n+ALVb7ZuCOXiZdZOiNXDOvg+saoV7Hor2K5GdYXaKwNGxQNY8D6HqDfc0FERJSGgdkRMF1+gstFETBNKWHO30/YDyC6zWqitWe6/HtoshzyF/GvYZDR2Enp+pyc3vWN0rBYv4TzeQC4iDkjuf5w9F/fg2TvXBAR0dHCwCzzZlHQI61YxVuydesbaHkA+Bl7Ml9sz7rdymlayV3BM0t2z3k/HWIwcFB9I9SzGUjKH6C+B8rauSAioqOGgRkRERFRRjAwO/I+w7TMF5suy5ymjtctnE++bWgb2LSTy06itONw2OeCiIiOGwZmR94ZnF8U+Ut71h/wyu1nuokzmAoz7e31rtM4TM3JvChP5lsFG6hrj9FIFjzm+j8Ow5wLIiKiNgZmx8BU6SsUVIjpJvR4btNKYm6y0PkFTf6rjpqSXnZK/zWmo2WUx3jrAdOqDFROiEGOwzDngoiIKMTA7Fi4iMv1J1g0ZmUA0YfiLdwsa62ut1T5S/jK0SLbnEWh/ATm/RP2NIiBjsMQ54KIiEjiI5mIiIiIMoItZkREREQZwcCMiIiIKCMYmBERERFlBAMzIiIiooxgYEZERESUEQzMiIiIiDKCgRkRERFRRjAwIyIiIsoIBmZEREREGcHAjIiIiCgjGJgRERERZQQDMyIiIqKMYGBGRERElBEMzIiIiIgygoEZERERUUYwMCMiIiLKCAZmRERERBnBwIyIiIgoIxiYEREREWUEAzMiIiKijGBgRkRERJQRDMyIiIiIMoKBGREREVFGMDAjIiIiyggGZkREREQZwcCMiIiIKCMYmBERERFlBAMzIiIiooxgYEZERESUEQzMiIiIiDKCgRl9UsEbDbnrOWjP3eQqojELUHmQQ+66hspuch0RUTYwMBsj93kOues55MYQZIQBi/kuueY4CeD81QMAeOtrGPmo7VagXc9BexMk14zkZJyLwQXvTGgP5DUvX5k+RrsOatsA4KH2w3ivEcq+bHyOXZiRz8u47heZ9s7MwHEfn3He57s51MBsv3IP1dxTbCVXHBPnTqvJRW0yaIh9IDteJ+2XfB76r8QxU+cXUEyupswK3mhQvrXhbSfXZNgpHYszAKBi8fN8ci0dYcEbDdp1c/Qfd0QH6HmfH5PDDcw2P2AvufAYUk+fSy6iLvJf1tH8ron6NYZlR0fY0qmifMNH87tm61W9kCybJXmUvm6i+V0dpVPJdXSUvf/oQbS9Z10R1dbnxYGRXE1HxiTv84camJ1op0qoR25gzRviI2nciCzjDYOOhPfY3AYwfx+lC2x5IiIapxEDsx1sVZ6imruCFfmqmq+xFU3fcJ+21tVsAKijFim/kruCamUn8oYNvGot20HdvBfb9n6kZNbkTxeSi8YieGO2u0EfmF26OwO40XLXNWjPXYyeSZPcbg65Bxq0B/Gcga75GzK/IJ73NUSexa6LynPxN8L9M/vMJYvmBPT3jjQq5k73cy7Evon9DWJ11p5XUv5+APe5Fju+2gMTbmS7ov69umnk8ZTHUJwLDZXdxLlLre8kHbxv7YT8lGsn7P5/kHbc+iCvvbRX8m/1ff3KOpnvADc8tw8qCCLnOjqQpX0u+rl2kPp5055XEsdsGH2ciwOOt7gOk+kWyfp2+94Z9HPRh8j51dcBwIaeOM/d8k2HOxfd9m2C5Pdez/OG3td67JwNdY4HIY9ZNPf0WztZSOrjmmwRZTv3bdT6Dm5S9/mokQKzLfM2alY91j25Z79E7dFGZMmQNjfwKncbb+0PrUV79ks8M8ew7Um5UBXdcl+OqxVBReNPGpQ1u91Mv23DWu68SbvPFejRcvDgretQunwA+xOg8iC5XQDb3uHmFu1WoC3rsNajtfBgry0d+IEM3mjiS3veQfNaEaOcmdr3aeeiy5fCRwfmdSVWZ2/dghILQOXxXY93w3jbNvTIdkVOQwN+2t8BgF0fjY6mdQ+17xPnrsu105dYjqQOGwDW9fgXZOxa62/fRPei6NKxv43WLUDlewseVJR/VxrpvE1C408a9PDcbtfw6PlS61x76w87rona97m+rp3Oz7G4bnRnqLMm9Xkuwhy87RqcjmvNxdo6gJlF6JFW/c76HvC909fnYpI+9XfqIAJUvhffe53nrbO+fennHM/fH7LnJmgfswPvD31ek0CsbCaM/T7faYTAbAObNgDjKm42V7EsXzedqyjMRYoVb7XWLRoAoGExUn65uQqzdCbyBmHPfokGZvGF80SU8++gAAD2+lCDB1wzh1yux0s7rA/bIDx42x7UeQf+d000v/PhzAOAjbXoL/t3Ziv4EOXCsiqwbeFRshWgX+8ewdoGMFOGs9LucvUXRs2MGCTPIrxBI3Ic5P4t9P7lErzRoKyJ49ccOYct5VwsqCIAShnh561bsKM5WCtyPyOjT4M3SynHV543eLDkzVj8QvOw+VG+8Z0Z/5X4cRMegMLp+BeFtx09Zl2unQnpd9+EIqo3DNHi0Wr1E+83bozQvS+/QKMvf2E8ibvetgd1wZcpCR7sdQ/GjXD7kXMlSneei9RrJ7wxliPXeRP+jTKM05FiA+r/XORR+o3Yn45r+t0abADGbyJB8hDfO/18LvoWOb/i2jbgJM53580z5XOc9rkYYt8m4jMjkcfZpb4p13o7XSb6GerjHH8+5Hflu0fimCXvF7IeUf1fk/H7UOtchNcNDDjHMAVohMBMsv+CLbfdFTlVvITLpYuxIsPRsNj8BlpRBm35i5jrPL/H37yDequlJ4/i5+IgND62P1TuD7a4QGMtQnkUr90XLRE/DPyVB0S3+3UJxciFnx/hJjGwcIqD2HGA2L8vq10/kNGgbFwDC9QFP34uvhTH1/urkxLUyy+MMAfrVBEL89H1YQJ98vjmUbz2AuWZyM3q9BzUyDkPPjZSvlhFV2tMH9dO32I5kvJLcd6J3wi+Dm/aA+xb6EJV3HDWdZhvKlha84B5J7uDCWbKeBG96c+UcfdC926Oga6d9Rqcd+2l+QslVL8c9hoe8FxcWEitV/hdsBA5H8N97xz0uTgEfXwuhtu3ccujdK2ayONs17en3Qq0b22oC37nZ6jXOZbX8eACVP7U5X4RLQYMfE2K77vEj4JTRdxdOKAn4QgbITC7iMuOhml8wFv9NlZy9/CqksgvG4Uxj/OJReerq1hu3upY3o9itYlms8ernr3uEvT16yWA/zNS8ytaXU4/+51f/geS252Zw+TGnvRBtgYdfBwi/roERd7YxxWUIaVFCjiHuZnEolDK9B/Fa000v6vK5WECfWc5IA/lM7S/dE4porUYaH2pGfNG64tVfHEVoCSC1IGO2VgNsG8RxWs+yjOAvWbBkzfFrFJ/pce+L5L/T+rv2hEthyo8WN8qMo9y1PyyQc+FDJRiXV1hS150G0N+76TUI/65mLyDPxdD7tsk7LowHyRyq7rmbIVkL8O8k9JiCAAyqIme490KHq4ffB0fqK/7xWDXZPhjx/4h0qu16+LRmpf6vXccjBCYiW5Ks/lEdF+qH9CwXqKmXEE1y3lg1Cf54fnEwl9LA/nVffmr62FnMveRJG7i3sf38rwYWNDnoMov1vcfvT6/ELMuG9fcJ3Whivp3vui+nPFgr1nQlw/3yRhFvQw12iL7bk10P+qdt1GaIJlba28PllvlPldgoQy/xw+b/OeLsXMc/FCDBwP3UwO5fkzws3vhrvw+t6CEwemyDJBTg7ujb7TADABwRnRf1lex3HyCL1Rgz/4j6l1/TvyE/a7rJudo5pj1Q/7CiPa/J1+tLqZByF/025t4n1gjmvn74/4wRGAVEf5aGqz77ZxIKJ/xYH+bTCQdo7Cb9TNliOMrJbv0gMgv9vDXoDzHP/sI3q3BnpnDuVM6FmciN89R6jApfe1bm/tcl/lHZaiwoR9aknV3o16/XfW8dvKi+/JrkXdTnkkfUDCQQc6FTBAPW2RFF1c86X9y3zuj6GyFHU429s11ZG7tQjTPrZ07lkYMdhJdhD3rFzvHsmtxpCBniPtFv9ekzDFTZ6L5oSqMBX8MucPZNHxgFrzGK/M1toLoVBdncH5xFsAH7CXPDoCpObGu4WxketqLo+bcaZGQuvTcRTCWLyZEmpRtPGxNFeCi8iAcmh7X2dwshjePPJImzIdYU6C9iQ5VF8Oyu9+siqh+7cCAlzr6bTiRMGHXbQ1KOLhrJE2YWyMS3mP79Vwmxka+KMU53oTzgy27G8RTE7y/PsLaz603Z8Rg+4bWDQVQF16gdKGEFwvymu4y3cG4Tez6bYlfO2batbNbgfm8Anc3us/h0zGSAwr6Nfi5aP3N7RqcXdGNmdbFNZnvneGIkcseaj+MZzqLLO1b4fS51rEP3lVg/qlLoPPOhLIGlFf66RaWgwC2LTx646C2PWqL6CD3i8GuyTDf7/7vXsBvDRSoo9qzdS99+pqjYvjALJwaQ7kdm5PsmfUBgIa5lHM8pZwFAOxZj/Gs6zxmk3FUc8z6kf9SJEx66zqU5WRORMrcTH0SXRoiKAqbj61tQJ030DG2TQZQ7eZmObw59itHis250zn1QnzuoXDEHuCt6e2m7OsK9LWDWjOKqK6Ibpm04fCDsr+VxyFyLEZJUC9eC0ekJfZr3QNm0nKsbFjr7ccJ5U8XgG0b9nZyqoxPb6B925XJ/pGE+tY1vaYMff0OZJDrdwjJa8fucu001i3oy5Gy13MiXzKReD+Igc6FlP/yPgx42HTWYHfp4prU984wwsA6/h2R/C7p38T2bYDvvvDRP9FrR/nWEtdOkkz2BzxYKfVNPQ7ymrfXLHgdLaKDG+R+Mcg1KY6DDX1Z6TgXXec923VQa01fk9Yyl23DB2b5S/jK0TAdO+KzmDbu4Ga3BP3iLdzseA+NLo/S12Ko8VgP7akS6jeiHyoVxg0f9c8Rm3tGEEGQ0UpoVmEsOPC/FqOYRnKhKnNukk3ZL7qOymyR+wDY0B8MF5zlP7+P8rwKNZqsPTOOpvQiqisOyvPx/VLnHfhfx3/1tkf7RZr4w2AiNbn8U+t331yYy2nzleVR+p34oo/PbzYpE7x+k2bktpPXzqkSXtww4tdZeMxGSo7v91xEiVYNe91OaVELTeh7ZxgXqvA7jt0oPv2+5b+sw1+If/+q8w78G+JzESMHSQ2mPSI2rUV0YKdKqN8ot8/BjLxf6NH5s0L9X5PiR4IskTi/Xed0O6VjUW77KD6H+Rc//vjjP5ILo86eFa1cRC3vTOS+tWHcyPqzEYnixDQqQHnlcOY+Cqdt4WeFssh9nhM5aSMF/pMkJpe1tg04K9XYNByiu1KBtS4ebXicPl/Dt5gREWVWgMpzM56vdcyH2BP1L8yhBNSFuxkNyhAb7ZmcoCTYfY/NdSB1DscjjoEZER1PP4u8lFZOihxin+0bEdEEtXLcwnyuxETJmRPO92fDSuZetj7PfaS0HDEMzIjoGMqj9DsnnpcY5rxk+kZEdBjCfK6sD3qL5Pol8svUGfG4quP4eWaOGREREVFGsMWMiIiIKCMYmBERERFlBAMzIiIiooxgYEZikk8tZZK+zMh6/YiIiMZjLIHZVuWeeLSS+bqPZ2DuYKvyFNXII5lWclfwinfdTyRARdNhe/HH+WVKAMCzoecYnBER0fE2hlGZG3iVewzx1MJZfOF/A63H6NUt8wpqKc9gLTiruMzJhQ6da+ag2yrKfh2lHuetX/uVe/ijdRb/1u2xXMMKKtAUC57hoFk9BheK+xQrej25tAM/F0REJ8sYWswuYq48CwCYNn6N871u7sFr/JcMyqbLd3CzuYpl+eLN5xNwTeg2oJZfjCUoA4D9zQ/YSy4ch3wJL8oqYOsw2WxGRETH1BhazAbQaiU4uGWNJi1ARVNgoQy/Pr5JBkWLqIbFcbeYASLXLKfDVsdb509vB3XtNt56ANSruFm/hKlkESIiOhGGbzFzn8ZyxMTrKbaS5SYoqGjI5TRUAiComNByOeRyOeQ0E5W0fKnARcXU2uVyOWiaCTdRtr3dAG4/20UA19Ra24y/RP0EF2YuB60SiMAo8h7NrHSmePVT36ACLZeD6aJdB62CILJ9La2JyX0EywPURf2AAKczJ7BqvsZWtA6Ra0F0U9dRS1wb1cpO5A0beNVatoO6KXIUD85TLOJuWQU8C49SdulYC4+x9hr72MFWj2O2ZcrjrnVZbm5ElqK/c5wgrjWNrZdERGM2fGDWr+B1+wu/lVPzAW+VyI07cQMZVG0pB8Wy4YULPBuWEg2IIAKhJR2W7bXLAfA8G7qSllTuobakQO/YbrKsaHnS7ehWD7DpwMwpsCLv8WwLSuwuN1h9Gw+1dh28Gh6ZS63te/bDjoDSXbMBqFjUe4dlW+Zt1Kx6rHtyz36J2qPkzX0Imxt4lbuNt/aH1qI9+yWedQQObXl9ESoAey15BE4I7yf82byN2gDHrDfRWpd6jpVuP7RcrNkeAA/2w5QfFERENLThA7PirVZ+2E2ZY/ZpePA8QDUc+M0mmk0fTlkVgZWTuGUUDJQdH81mU758OAYA2Ei7z3dsN62sbHmCWpblmmj6DgwAgAGn2ZlU79kWbKjtuoTl7bV4wDVAfT3Pg1r20XQMccO0PRhOE748Fpvvo6UD+A0A6iJ6x2Ub2LQBGFdj+YA3nasozEWKRa6FRQMANCxGyi83V2GWzkTeIOzZL9HALL5wnohy/h0UAMBe7xIQAMjrWFQBNPyRAgLXTLZsJl5aO+AYpOzk1dGwgYI8Zq3PXq9j1sN+5Q+iCzXtPKCOWmrAV8SCoQJQYdw/qMWViIgGMXxg1q/8JZjhDdrR5MJZfOFHbtwj5tSoZR/1alHeIPIolu7DAODVnMgNM49StYpSMXobyaO4IEKoVIYT364s2/DbWw18MR7VuB/JecrLLjc0ECkaIQO2sC75IjqrMWB91TJeRCNAtYy7RSCviFts3HtsegAKSn83Vfsv2HLbXZFTxUu4XLoYKzIcDYvNb6AVZdCWv4i5LrvXlodSAOBtIhZrniDT5Se4LI/ZlBLmgP6E/dRrrZcdbNVEy9t0+fex8/CvYcDX2EltzS5W62g266jGrk8iIhrV5AOzQ1BQkjeHc5hTE4sgcrZMLZELpqfM3SEZCwcPFQ0DH3st0moSuHhkeQAK6KgaABgLSG65WG2i2azGlw9Q32SuWPL/w7mIy46GaXzAW/02VnL38KrSO/doIMZ8xwCB89VVLE9k4ECcON49XpHBBYOUnbxZFPRI62OrtXKYwTQ/Y0/2fu9Zt2M5gc8s2VXq/ZQamBER0WQci8CsL0EFmqLD9gbIBetH8S7KKgDbghIGT4oOG+kBWN8mVd9BFW/BbD4R3ZfqBzSsl6gpV1BN7eIiIiKiURzPwCxwUEt01bmPLIhUsDBnTL5E0tbwwtGNarSJToVR9keaCHVi9QXaLYp952mdEd2X9VUsN5/gCxXYs/+Ietc3D9Ot1q8wP24O55KrBjBI3tggZbNL5gvGfIZpedlOl2V+Wcdr8q2XRETUdkwCs8htMXBhLomgJq0rsqCcawVrgVuB+bDjbjUQMbrRwP0XL+D7YQBVRzWZ8T+kcddXCPO0akiOj4gJXuOV+RpbQXSqizM4vzgL4AP2UpK8pubEuoazMZkusJSgm+LEOZDdkAGAYAN1LXw6R1R4LoE96w94FckjPAinyyAimoyhA7N9+XzMWD5KdP6qEafAGIStK+3WC0U+99FwEG2wOieTzqJlFd0SZUcgtmtDVxQoSrwlpWPOsQFMqr4hMYggZeRqgpg2IS3/SMNcZ9zbSkbfsx7jWXRerNg8ZsMLnFrXoHsQg+SNDVI2C6b0X2MaEJ9H5QpWlMd46wHTaufo6anSVyioEMG0Hj/P3c8bp8sgIpqUoQOzzFJVGGUHfqIbMV+qwy8baHc4qmIqDKccWTa4vBwBCvGnY7rNOdaPSdW3RebGedaj7vXLX8JXjtbq7hJmMW3cwc1uXVzFW7jZ8Z5xCeDUvNaIU+oiPG+tBbMolJ/AvJ/2FI+LuFx/gkVjNlL+IJwug4hoUg73kUxjFlQ0KJaYr2uEdK4RyMcaeQYcv4r4zAEBKqYCy8YnrN8BXBM53RbTjYyp63WSPv35JiIimqzj12J2qOR8YACSafRB8F4mW6uYGyVLfZKKVTgG4FlLHU8GyJyggiXL6+iiJiIiOk4YmI0knC/NhqVE8txyOShyygy1/KJj5v8sKVYdGPDEo6ayGpwFLkzFgqeWO7qoiYiIjhMGZiPJo1T34RhqR36ZqorHKWW/i7CIatOBoQKZTRbKA1ANOBlLsiciIhq3I51jRkRERHScsMWMiIiIKCMYmBERERFlBAMzIiIiooxgYDZG4dMQsvGAbxemNtzktkTjwWuQiGhQDMzGZgdbNfFoqj17HVvJ1YcqQEWTj6ZKmQLDfZ5D7noOuefilpn8P1E3yWsl+f+YAIBnQ88xOCMi6hcDs7FpPxB62phPf1zREPYr91DNPR0o0HNNBZanotzxNALh3On05yWppxMz4b4zxU23y8t8Fy8OAMEbDdp13oiPq76vHQDIF1H1y1BhQ+fTzomI+sLAbIymSt9gubkKs3oxuWpo+5sfsJdc2ItrQrf7m9g2vJl2u9kO4/1HD2N6zjplWN/XTr6EF2UVsHUwNiMiOhgDs2MlQOWhDahlvDgoKuvHhSqa3zXF64Z4VLtxQ/7/uyaqF5JvIOqUL92HAcB+WEnrWScioogTE5iJxPx7qAfAfuUpqrkrWMldwYr2FPWOu8UGXuWuoFrZAbCDuimS+kVi/2vsp5QN16/krmClS/J/uw472OpVB/dpa1s1GwDqqCX+hqhbgvsIlgeoi3rPGfLzpwup/y+c7vWuHiJdnvo6ANjQE92e2puOg9y/XReV5xq06PYemHB3kwX7F7zRkLuuobILBG/M9rYfmKikbbfPOrS3G8DtZ7sI4D7XOrqJxUvUT3Bhto5jgErkPdrzlICnn/ruVqDJLulWHR5UEES2ryVyx4a7doq4W1YBz8IjtpoREfV0YgKzUGPpCp5Z9Xb3oFfHW0UEbB02N/AqdxtvbZHUDwB79ks86xJ49ecDGku3Ueuow2B5ZGncNRuAikW9102y3RJW/1KWk//PZgtYgMr3Oqz1eBept21DXx49l632fQ7Kmt3e9rYNazkaEGGIOniofa9A79husmyAygMF+voAnb8fHZjXFViR93jrFpRYADVYfRt/0tp12K7h0fOl1va99YfxYzHktZPXF6ECsNeSf52IiKJOWGD2AXseMG3cwc3mKpabT7BYnhXBktPZArVnv0QDs/jCeYLl5iqW/TsoAEBs1OVFXG6uivVNuf4AHXUwAKCOzfCeVbwlt7cq12lYbP0N8TJLZ2LbBAL4DQDqIg6Ky8Yu0uXpzAOAASfsApWv1o18GJ8ZKN/wI9vz5d+xsZYyAKF/HrxtQJ134IfbXVBFYPVDIlIfsA4d200r++4RrG0AM2VZronmigPZaQznuzpKpyLlZRBmQ23XJSy/vhYPuAaor7ftQV3wZXe1B3vdg3GjCV8ei82P8fJDyetYVAE0/M7WPSIiajlhgRkwXX4Cs3oRU4AYSVn6CgUAe7WNRBclZED0DbSiDILyFzEn7pqjMe7E67CgAQD2/M7gsH/vsekBKCg9uzGPnjxK16ooXYjuVR7Fz8dxIgB1wUf9WlEeszyKX4p8KO+vTiSAGKIO8058u7Js42N7q8HHBgDA+E3k4eyniri7oAJowE/t+pQBW1iXU0UszCfLDFjfmTJeRAPnmTLuXujsthxNHkoBgLeJ98lVRETUcvICMyXZ0vQZprsNLEuZ9uJ8dRXLzVsdywdRWBjfqM0TYdeF+SCRh/WtnSw1lM7cqHOYm0kswuB1MD4vJhd1CAMf+4dIjtiui0drHoAClERrGQBgfgHJLRevNdH8rhpfPkB91V/FcxKT/yciosNz4gIzOmJ2K9CWddjbA+Rhjduk6nDhLsozANYtKGHwtKzDRnoA1rdJ1ZeIiCaOgVmwgYYHoHBGdi1m0U/YPzAx5xzmMpPD060bbnCuY8EDoC6E+VryJafvGLtdB7VtAJ+1u4QnVgeZY6bORJtsVRgLPprXhg7LJlffkYQ5kHNImYqWiIikExiYRfK4gg28WnqJvQx3L07NhYMT0nLgosIcnhqcTxiZiQlHPdR+cMcaIBZOn2sFSsG7Csw/pXfLDS5Sy10X5vciqEnrihx3HdwfbAAG7v/uBfyVMICqozrKQImIcdd3JIGD2rHMgSQiGq8TF5g19Nvt+cCUx6K1zLiDy5334f5E5hxbyT1GAwDsx73nGxvAlHIWALBnPcazA+YxKy6IUXW1cUVm0Ucyyfwk+9t2zlLaI5nCvClvTW93z40wj1k4s7z9rdLalvKtBXs7WXI40e3mlnWx3XknNv3DpOogtmtDX1agLEdywdLmHBvApOo7isCpiYB3YdgPGhHRyXDiArMYdRaF8h3cHOMjlMaueAs3Ha37AIWo4l2IeTwfdcxVdWguVOHfMKCmJdAPIf9lHf6Cgfbuq2IaihvlyLIxmVFhLDjwE92Ik6pDXo4ABdBxvLrNOdaPSdV3eAGcmgeoZdxlXEZE1NMvfvzxx38kF0adPStabI66/co9PLM+oOCsDt86dhS4JnK6DbXsoz6OxzIdU8EbDcqamK/roMlRJ0NMLmttG3BWqijGRmAGqDxXYK2LR2B9mvqNT1DRoFgeDKeJ6nH+7BERjcHJbjE7jopVOAbgWUuoDNd7SIfiPTZl12JyuEaw+x6b6wCgYu50bNXRE1SwZHmA4TAoIyLqAwOzY6hYdWDAg6WYcBmcZVQ4X5oNazmS53Y9B0VOmaEuvOiY+f9ICVyYigVPLcNnVEZE1BcGZsdSEdWmA0MFOAQuq/Iofe3DmVc78svUGfE4pZEeY5UFeQCqAaceebIBERH1dGJyzIiIiIiyji1mRERERBnBwIyIiIgoIxiYEREREWUEAzMiIiKijDic5P/gNaqKeCZlm4bF5i2cjy0jIiIiOrnYYkZERESUEYcTmOUvwWyuYrm5ipvl2eRaIiIiIjq0wIyIiIiIDjRiYLaDrcpTVHNXsCJfVfM1tkZ+DNAOtsx7se2uaE+xFewkCw5VB9fUkMtpMN3kGiIiIqJPZ4TAbAd17TZqVj2W1L9nv0RNeYqtyLLBbOBV7jZq9of4YAGvjpryKrHdYergYs32AHiwH1YSj48mIiIi+nSGDsz2K3/AWw8AZvGF8wTLzVUs+3dQAADUUTM3km/pj7uOBgBgFgVH5KUtN1dx07+DghofITpcHYpYMFQAKoz7Op/hR0RERJkxZGC2g63aBwDAdPn30IpnxOL8RfxrmNzf2MF+5B2D+4DGw3aX5FT+Ii7XL0Wm1xi+DsVqHc1mHdUiwzIiIiLKjiHnMdvAq9xj2bLVTfo8ZfuVe3hmfei6PuyeFC1hbdPGVfzb3Us434qlhq8DERERURYN2WI2SWeg1Z/gpnMVBbW9VOSN3cMrJuwTERHRMTVki1m7VWu6/ARmSXYj9uHgFrOkHexXXuGZVRf/Ne5guXpxpDoQERERZdGQLWZncH5R5HHtWX/AKzdtGovh7FeeompuYL81XPIMpvSzmI4XG6kOnC6DiIiIsmjIFjOIHC/tMRqJXLBQtBWr3UrWhXoVN+uXMHVg2Vl84X8DLZpn1mcd2lyYOR02AKhl+PUSR2YSERFRJgzZYgYAF3G5/gSLxmxKa9bwpkq/x2JZw3QkvwyYxbRxFYuxoAxD1oHTZRAREVE2jdBiRkRERETjNEKLGRERERGNEwMzIiIiooxgYEZERESUEQzMiIiIiDKCgRkRERFRRjAwIyIiIsoIBmZEREREGcHAbIz2K/ewkruCqrmRXPUJuDA1E3zqFI0XrysiokliYDY2O9iqiUdJ7dnr2EquPlQBKpoO2wPQeuZom/s8h9z1HHLPxe01+X86WZLnP/n/mACAZ0PPMTgjIpoEBmZj036o+rQxj/PJ1UPar9xDNfd0oEDPNRVYnoqyX0Ux5ZlT507HnnfVop4+l1w0UcEbDdp13uA/tYGuh3wRVb8MFTZ0k2eOiGjcGJiN0VTpGyw3V2FWLyZXDW1/8wP2kgt7cU3oNqCWX6CUEpRFhTfebjfmSXv/0UOX58/TJ9D39ZAv4UVZBWwdjM2IiMaLgdmxEqDy0AbUMl4cFJURjSBfug8DgP2wktZbTkREQzoxgZlIzL+HegDsV56imruCldwVrGhPUe+4s2zgVe4KqpUdADuomyKpXyT2v8Z+Stlw/UruCla6JP+367CDrV51cJ+2tlWzAaCOWuJviLoluI9geYC6qKNXWJY/XUj9f+F0/F3BGw256xoquwHcNya06zL36IGJym6sqBTAfa61y13PQXtgwo2WfWe21unrAGBDj5TPXc9Be9NxQvrSri8Q9FPfXReVg+o7wnGI7lP7JeonuDBb+xugEnmP9jwl4OmnvrsVaNdzMN+hXYcHFQSR7WuJ3LF+r4e4Iu6WVcCz8IitZkREY3NiArNQY+kKnln1dvegV8dbRQRsHTY38Cp3G29tkdQPAHv2SzzrEnj15wMaS7dR66jDYHlkadw1G4CKRb3XDRXAhSqa3zVR/1KWk/+vXkgWBAAPte8V6Gt2u9tx24a1nMwNC1B5oEBfj3dPets29OVoMDJ5te9zUDrqm6xDgMr3OqzU+ib3DUMdh759dGBeV2BF3uOtW1BiAdRg9W38SWvXYbuGR8+XWtv31h/Gj8VA10NbXl+ECsBeS/51IiIa1gkLzD5gzwOmjTu42VzFcvMJFsuzIlhyOlug9uyXaGAWXzhPsNxcxbJ/BwUAiI26vIjLzVWxvinXH6CjDgYA1LEZ3t+Kt+T2VuU6DYutvyFeZulMbJtAAL8BQF3EQXHZoLxtQJ134H/XRPM7H848ANhYe9cuE7xZgrUNYKYMZ6WJZqusCsCD5cidkzf95ndNuR0Djvx/+GoFCEPxOuu7IOpQ+yERfX9moHzDj/zt9H0LdWw3rey7R63jIMo10VxxYAByX+sonYqUl0GYDbVdl7D8+lo84Bqgvt62B3XBR/OGAcCDve7BuNGEL4/F5sd4+aHkdSyqABp+Z+seEREN5YQFZsB0+QnM6kVMAWIkZekrFADs1TYSXZSQAdE30IoyCMpfxJy4w47GuBOvw4IGANjzO4PD/r3HpgegoPTsxhzKvIP6taLcbh7Fz8VBaHwMb8cBnL96IvD4uoRiK/DIo3jtBcozKUHGBKkLfry+X4p8KO+vTiSAyKN0rYrShejRau9bqgOPAxB8bAAAjN+U2ufhVBF3F1QADfipLYcyYAvrcqqIhflkmQHrO1PGi2iAO1PG3Qud3ZajyUMpAPA28T65ioiIhnLyAjMl2dL0Gaa7DUJLmfbifHUVy81bHcsHUVgY36jNw2B8XkwuSniPzW0A8wvoLJmH8hl6BCXj15kbdQ5zM4lFEDlb5oNELti3drJUy8HHoR342D9EcsR2XTxa8wAUoCRay4D041a81kTzu2p8+QD1VX8VzzNM/p+IiLLpxAVmRIBMkl/WYW8PkAvWjwt3ZQuhBSUMnpZ12EgPwPo2qfoSEVGmMDALNtDwABTOyK7FLPoJ+wcm8ZzD3KfO90ntrgzg/4zurUWH0ZK266C2DeCzdjev61jwAKgLYc6YfN3o0jXYL5ljps5Em2FVGAs+mteGDssmV9+RhHmNc0iZipaIiIZwAgOzSB5XsIFXSy+xl+Huxam5cHBCWg5cVJjvU4Nz6JFZmBNlQ3/uRgLDAO5zOSggpbVITGTqofZD9D3jENnargvzexHUpHVFFk6fawVrwbsKzD+ldw32y/3BBmDg/u9ewG8NgqijOtKAhrZx13ckgYPapPIaiYhOqBMXmDX02+35wJTHorXMuIPLnffs/kTmHFvJPUYDAOzHvecbG8CUchYAsGc9xrMD5jErLogReLXDj8xQvBaOJNTbXXjX5bQRMwaclNaiMB/LW4u+Z/h5zEL2t0o7B2tZh70tEvej0z+Es9tHyyrfWqLsCMR2bejLCpTlSC5Y2pxjA5hUfUcRODUR8C50nlsiIhrOiQvMYtRZFMp3cHOMj1Aau+It3HS07gMUoop3Ieb8fJTSpThpRVRXHJTn41146rwD/+tEEnvoQhX+DQNqWmL+uMyoMBYc+InAMP9lHf6CgXZtZV1vlCPLBpeXI0ABdOxXtznH+jGp+g4vgFPzALWMu6knl4iIhvGLH3/88R/JhVFnz4oWm6Nuv3IPz6wPKDirw7eOHQWuiZxuQy37qJ+wxzIFbzQoa2K+roMmR50MMbmstW3AWalGpg2R654rsNbxCes3PkFFg2J5MJwmqsf580REdMhOdovZcVSswjEAz1pCZbQeQRqYnDYEQHIIRrD7HpvrAKBi7nRs1dETVLBkeYDhMCgjIhozBmbHULHqwIAHSzHhMjg7ROF8aTas5Uie2/UcFDllhrrwomPm/yMlcGEqFjy1DJ9RGRHR2DEwO5aKqDYdGCrA4XKHKY/S1+IxVMn8MnVGPE5ptMdNZUAegGrAqUeebEBERGNzYnLMiIiIiLKOLWZEREREGcHAjIiIiCgjGJgRERERZQQDMyIiIqKMYGBGRERElBEMzIiIiIgygoEZERERUUYwMCMiIiLKCAZmRERERBnBwIyIiIgoIxiYEREREWUEAzMiIiKijGBgRkRERJQRDMyIiIiIMoKBGREREVFGMDAjIiIiyggGZkREREQZwcCMiIiIKCMYmBERERFlBAMzIiIiooxgYEZERESUEQzMiIiIiDKCgRkRERFRRgwVmOVyueQiIiIiIhrR/w/D2Ugh7ucvdwAAAABJRU5ErkJggg==;" vertex="1" parent="1">
          <mxGeometry x="91.5" y="1730" width="614" height="305" as="geometry" />
        </mxCell>
      </root>
    </mxGraphModel>
  </diagram>
</mxfile>
